<svg width="460" height="301" viewBox="0 0 460 301" fill="none" xmlns="http://www.w3.org/2000/svg" xmlnsXlink="http://www.w3.org/1999/xlink">
<g filter="url(#filter0_d_2753_30645)">
<mask id="mask0_2753_30645" style={{mask-type:'alpha'}}maskUnits="userSpaceOnUse" x="20" y="14" width="420" height="267">
<path fill-rule="evenodd" clip-rule="evenodd" d="M250.502 14.088C306.743 15.7393 342.712 42.7363 378.623 64.6792C409.937 83.8131 435.482 104.69 439.296 129.448C443.46 156.478 428.981 182.261 400.266 205.158C361.195 236.312 322.619 274.37 250.502 279.991C173.546 285.989 91.8812 264.616 46.1386 232.76C4.46776 203.741 22.2022 164.78 34.331 129.448C43.8726 101.653 68.2034 77.1715 106.581 56.6914C146.326 35.4812 192.807 12.3939 250.502 14.088Z" fill="#C4C4C4"/>
</mask>
<g mask="url(#mask0_2753_30645)">
<rect x="7.48633" y="-41.7012" width="523.352" height="315.958" fill="url(#pattern0)"/>
</g>
</g>
<defs>
<filter id="filter0_d_2753_30645" x="0" y="0" width="460" height="300.257" filterUnits="userSpaceOnUse" color-interpolation-filters="sRGB">
<feFlood flood-opacity="0" result="BackgroundImageFix"/>
<feColorMatrix in="SourceAlpha" type="matrix" values="0 0 0 0 0 0 0 0 0 0 0 0 0 0 0 0 0 0 127 0" result="hardAlpha"/>
<feOffset dy="6"/>
<feGaussianBlur stdDeviation="10"/>
<feColorMatrix type="matrix" values="0 0 0 0 0 0 0 0 0 0 0 0 0 0 0 0 0 0 0.2 0"/>
<feBlend mode="normal" in2="BackgroundImageFix" result="effect1_dropShadow_2753_30645"/>
<feBlend mode="normal" in="SourceGraphic" in2="effect1_dropShadow_2753_30645" result="shape"/>
</filter>
<pattern id="pattern0" patternContentUnits="objectBoundingBox" width="1" height="1">
<use xlink:href="#image0_2753_30645" transform="translate(0 -0.050752) scale(0.000625 0.00103525)"/>
</pattern>
<image id="image0_2753_30645" width="1600" height="1064" xlinkHref="https://images.tommi.space/plugins/download_by_size/action.php?id=23531&part=e&size=small" />
</defs>
</svg>
